<?xml version="1.0" encoding="UTF-8"?>
<svg id="Layer_1" data-name="Layer 1" xmlns="http://www.w3.org/2000/svg" viewBox="0 0 511.49 404.36">
  <defs>
    <style>
      .cls-1 {
        fill: #7f3f98;
        stroke: #7f3f98;
      }

      .cls-1, .cls-2 {
        stroke-linecap: round;
        stroke-miterlimit: 10;
        stroke-width: 12px;
      }

      .cls-2 {
        fill: #21409a;
        stroke: #21409a;
      }
    </style>
  </defs>
  <path class="cls-2" d="m476.91,320.01c-118.35-131.8-148.09-221.3-145.83-282.45.14-3.81,1.02-19.4,1.83-31.55-15.78-2.62-29.53,358.67-151,390-63.19,16.29-164.45-54.39-175-150C-4.66,141.2,97.34,47.73,156.91,59.01c95.34,18.06,86.1,305.28,149,310,29.27,2.19,72.06-56.93,135-295"/>
  <path class="cls-1" d="m505.49,320.01c-118.35-131.8-148.09-221.3-145.83-282.45.14-3.81,1.02-19.4,1.83-31.55-15.78-2.62-29.53,358.67-151,390-63.19,16.29-164.45-54.39-175-150C23.93,141.2,125.93,47.73,185.49,59.01c95.34,18.06,86.1,305.28,149,310,29.27,2.19,72.06-56.93,135-295"/>
</svg>